<svg width="512" height="512" viewBox="0 0 512 512" fill="none" xmlns="http://www.w3.org/2000/svg">
  <title>Factory logo with red center</title>
  <path d="M256 7L158.5 176H353.5L256 7Z" fill="#737373"/>
  <path d="M47 121L221 21L134 171L91 96L47 121Z" fill="#9A9A9A"/>
  <path d="M47 121L91 96L134 171Z" fill="#666666"/>
  <path d="M291 21L465 121L378 171L421 96L291 21Z" fill="#9A9A9A"/>
  <path d="M421 96L465 121L378 171Z" fill="#666666"/>
  <path d="M34 143L124 191L34 344V143Z" fill="#454545"/>
  <path d="M124 191L238 347L42 378L124 191Z" fill="#626262"/>
  <path d="M124 191L185 298L42 378L124 191Z" fill="#3F3F3F"/>
  <path d="M478 143L388 191L478 344V143Z" fill="#666666"/>
  <path d="M388 191L274 347L470 378L388 191Z" fill="#626262"/>
  <path d="M388 191L327 298L470 378L388 191Z" fill="#454545"/>
  <path d="M70 405H244L198 480L70 405Z" fill="#555555"/>
  <path d="M244 405V505L198 480L244 405Z" fill="#6A6A6A"/>
  <path d="M268 405H442L314 480L268 405Z" fill="#666666"/>
  <path d="M268 405V505L314 480L268 405Z" fill="#4B4B4B"/>
  <path d="M158 200H354L256 256L158 200Z" fill="#F87171"/>
  <path d="M158 200L256 256V367L158 200Z" fill="#B91C1C"/>
  <path d="M354 200L256 256V367L354 200Z" fill="#EF4444"/>
</svg>
